<svg width="46" height="46" viewBox="0 0 46 46" fill="none" xmlns="http://www.w3.org/2000/svg">
<path d="M36.2438 36.0543L43.3289 43.1394" stroke="#E6961F" stroke-width="4.72342" stroke-linecap="round"/>
<path d="M3.32617 19.5223C4.48837 10.2023 12.4388 2.99036 22.0736 2.99036C32.5084 2.99036 40.9673 11.4493 40.9673 21.884C40.9673 31.5191 33.7553 39.4695 24.4351 40.6315" stroke="#E6961F" stroke-width="4.72342" stroke-linecap="round"/>
<path d="M2.48902 34.105L12.4331 22.5035C13.1949 21.6148 14.6466 22.257 14.5014 23.4185L13.8076 28.9692H19.5061C20.515 28.9692 21.0592 30.1526 20.4026 30.9185L10.4586 42.52C9.69679 43.4087 8.24511 42.7665 8.39031 41.605L9.08413 36.0543H3.38559C2.37672 36.0543 1.83246 34.8709 2.48902 34.105Z" fill="#E6961F"/>
</svg>
